<mxfile host="app.diagrams.net" modified="2024-06-20T07:41:52.906Z" agent="Mozilla/5.0 (Windows NT 10.0; Win64; x64; rv:127.0) Gecko/20100101 Firefox/127.0" etag="ULWCwtxflIHOnKscm_Gy" version="24.5.5" type="github" pages="3">
  <diagram name="Page-1" id="0ORSx8LRnBOkC67IxLJI">
    <mxGraphModel dx="2085" dy="656" grid="1" gridSize="10" guides="1" tooltips="1" connect="1" arrows="1" fold="1" page="1" pageScale="1" pageWidth="850" pageHeight="1100" math="0" shadow="0">
      <root>
        <mxCell id="0" />
        <mxCell id="1" parent="0" />
        <mxCell id="L7Zl3QWs8CthCIQaCz2B-14" style="edgeStyle=orthogonalEdgeStyle;rounded=0;orthogonalLoop=1;jettySize=auto;html=1;entryX=0;entryY=0.5;entryDx=0;entryDy=0;" edge="1" parent="1" source="L7Zl3QWs8CthCIQaCz2B-1" target="L7Zl3QWs8CthCIQaCz2B-13">
          <mxGeometry relative="1" as="geometry" />
        </mxCell>
        <mxCell id="L7Zl3QWs8CthCIQaCz2B-1" value="CHAT LIBRARY&lt;br&gt;" style="rounded=0;whiteSpace=wrap;html=1;" vertex="1" parent="1">
          <mxGeometry x="160" y="200" width="120" height="60" as="geometry" />
        </mxCell>
        <mxCell id="L7Zl3QWs8CthCIQaCz2B-16" style="edgeStyle=orthogonalEdgeStyle;rounded=0;orthogonalLoop=1;jettySize=auto;html=1;entryX=0.5;entryY=1;entryDx=0;entryDy=0;exitX=0.5;exitY=1;exitDx=0;exitDy=0;" edge="1" parent="1" source="L7Zl3QWs8CthCIQaCz2B-3" target="L7Zl3QWs8CthCIQaCz2B-15">
          <mxGeometry relative="1" as="geometry" />
        </mxCell>
        <mxCell id="L7Zl3QWs8CthCIQaCz2B-23" style="edgeStyle=orthogonalEdgeStyle;rounded=0;orthogonalLoop=1;jettySize=auto;html=1;entryX=0;entryY=0.5;entryDx=0;entryDy=0;" edge="1" parent="1" source="L7Zl3QWs8CthCIQaCz2B-3" target="L7Zl3QWs8CthCIQaCz2B-8">
          <mxGeometry relative="1" as="geometry" />
        </mxCell>
        <mxCell id="L7Zl3QWs8CthCIQaCz2B-3" value="MS CHAT (3 endpoint)" style="rounded=0;whiteSpace=wrap;html=1;" vertex="1" parent="1">
          <mxGeometry x="80" y="320" width="120" height="60" as="geometry" />
        </mxCell>
        <mxCell id="L7Zl3QWs8CthCIQaCz2B-4" value="Buyer/Seller/etc" style="rounded=0;whiteSpace=wrap;html=1;fillColor=#dae8fc;strokeColor=#6c8ebf;" vertex="1" parent="1">
          <mxGeometry x="140" y="40" width="120" height="60" as="geometry" />
        </mxCell>
        <mxCell id="L7Zl3QWs8CthCIQaCz2B-5" value="" style="endArrow=classic;html=1;rounded=0;exitX=0.5;exitY=0;exitDx=0;exitDy=0;entryX=0.5;entryY=1;entryDx=0;entryDy=0;" edge="1" parent="1" source="L7Zl3QWs8CthCIQaCz2B-7" target="L7Zl3QWs8CthCIQaCz2B-4">
          <mxGeometry width="50" height="50" relative="1" as="geometry">
            <mxPoint x="400" y="300" as="sourcePoint" />
            <mxPoint x="450" y="250" as="targetPoint" />
          </mxGeometry>
        </mxCell>
        <mxCell id="L7Zl3QWs8CthCIQaCz2B-6" value="" style="endArrow=classic;html=1;rounded=0;exitX=0.5;exitY=0;exitDx=0;exitDy=0;entryX=0.5;entryY=1;entryDx=0;entryDy=0;" edge="1" parent="1" source="L7Zl3QWs8CthCIQaCz2B-1" target="L7Zl3QWs8CthCIQaCz2B-7">
          <mxGeometry width="50" height="50" relative="1" as="geometry">
            <mxPoint x="220" y="200" as="sourcePoint" />
            <mxPoint x="180" y="100" as="targetPoint" />
          </mxGeometry>
        </mxCell>
        <mxCell id="L7Zl3QWs8CthCIQaCz2B-7" value="&lt;div&gt;Installable, gitlab registry&lt;/div&gt;" style="text;html=1;strokeColor=none;fillColor=none;align=center;verticalAlign=middle;whiteSpace=wrap;rounded=0;" vertex="1" parent="1">
          <mxGeometry x="170" y="135" width="90" height="30" as="geometry" />
        </mxCell>
        <mxCell id="L7Zl3QWs8CthCIQaCz2B-8" value="Firebase SDKs" style="rounded=0;whiteSpace=wrap;html=1;" vertex="1" parent="1">
          <mxGeometry x="240" y="320" width="120" height="60" as="geometry" />
        </mxCell>
        <mxCell id="L7Zl3QWs8CthCIQaCz2B-9" value="" style="endArrow=classic;html=1;rounded=0;exitX=0.5;exitY=1;exitDx=0;exitDy=0;entryX=0.5;entryY=0;entryDx=0;entryDy=0;" edge="1" parent="1" source="L7Zl3QWs8CthCIQaCz2B-1" target="L7Zl3QWs8CthCIQaCz2B-8">
          <mxGeometry width="50" height="50" relative="1" as="geometry">
            <mxPoint x="210" y="280" as="sourcePoint" />
            <mxPoint x="440" y="270" as="targetPoint" />
          </mxGeometry>
        </mxCell>
        <mxCell id="L7Zl3QWs8CthCIQaCz2B-10" value="&lt;div&gt;Integrasi&lt;/div&gt;" style="edgeLabel;html=1;align=center;verticalAlign=middle;resizable=0;points=[];" vertex="1" connectable="0" parent="L7Zl3QWs8CthCIQaCz2B-9">
          <mxGeometry x="0.032" y="1" relative="1" as="geometry">
            <mxPoint as="offset" />
          </mxGeometry>
        </mxCell>
        <mxCell id="L7Zl3QWs8CthCIQaCz2B-11" value="" style="endArrow=classic;html=1;rounded=0;exitX=0.5;exitY=1;exitDx=0;exitDy=0;entryX=0.5;entryY=0;entryDx=0;entryDy=0;" edge="1" parent="1" source="L7Zl3QWs8CthCIQaCz2B-1" target="L7Zl3QWs8CthCIQaCz2B-3">
          <mxGeometry width="50" height="50" relative="1" as="geometry">
            <mxPoint x="175" y="280" as="sourcePoint" />
            <mxPoint x="255" y="340" as="targetPoint" />
          </mxGeometry>
        </mxCell>
        <mxCell id="L7Zl3QWs8CthCIQaCz2B-12" value="&lt;div&gt;Integrasi&lt;/div&gt;" style="edgeLabel;html=1;align=center;verticalAlign=middle;resizable=0;points=[];" vertex="1" connectable="0" parent="L7Zl3QWs8CthCIQaCz2B-11">
          <mxGeometry x="0.032" y="1" relative="1" as="geometry">
            <mxPoint as="offset" />
          </mxGeometry>
        </mxCell>
        <mxCell id="L7Zl3QWs8CthCIQaCz2B-13" value="https://gitlab.playcourt.id/telkom-digital/smb/padiumkm-marketplace/core/padi-core-fe-chat" style="text;html=1;strokeColor=none;fillColor=none;align=left;verticalAlign=middle;whiteSpace=wrap;rounded=0;" vertex="1" parent="1">
          <mxGeometry x="450" y="120" width="380" height="30" as="geometry" />
        </mxCell>
        <mxCell id="L7Zl3QWs8CthCIQaCz2B-15" value="https://gitlab.playcourt.id/telkom-digital/smb/padiumkm-marketplace/core/padi-ms-core-chat" style="text;html=1;strokeColor=none;fillColor=none;align=left;verticalAlign=middle;whiteSpace=wrap;rounded=0;" vertex="1" parent="1">
          <mxGeometry x="450" y="165" width="390" height="30" as="geometry" />
        </mxCell>
        <mxCell id="L7Zl3QWs8CthCIQaCz2B-17" value="CMS" style="rounded=0;whiteSpace=wrap;html=1;fillColor=#dae8fc;strokeColor=#6c8ebf;" vertex="1" parent="1">
          <mxGeometry x="80" y="480" width="120" height="60" as="geometry" />
        </mxCell>
        <mxCell id="L7Zl3QWs8CthCIQaCz2B-21" style="edgeStyle=orthogonalEdgeStyle;rounded=0;orthogonalLoop=1;jettySize=auto;html=1;entryX=0;entryY=0.5;entryDx=0;entryDy=0;" edge="1" parent="1" source="L7Zl3QWs8CthCIQaCz2B-19" target="L7Zl3QWs8CthCIQaCz2B-3">
          <mxGeometry relative="1" as="geometry" />
        </mxCell>
        <mxCell id="L7Zl3QWs8CthCIQaCz2B-19" value="CRUD Word Cesor" style="shape=parallelogram;perimeter=parallelogramPerimeter;whiteSpace=wrap;html=1;fixedSize=1;" vertex="1" parent="1">
          <mxGeometry x="-30" y="420" width="140" height="40" as="geometry" />
        </mxCell>
        <mxCell id="L7Zl3QWs8CthCIQaCz2B-20" style="edgeStyle=orthogonalEdgeStyle;rounded=0;orthogonalLoop=1;jettySize=auto;html=1;entryX=0.408;entryY=1.033;entryDx=0;entryDy=0;entryPerimeter=0;exitX=0;exitY=0.5;exitDx=0;exitDy=0;" edge="1" parent="1" source="L7Zl3QWs8CthCIQaCz2B-17" target="L7Zl3QWs8CthCIQaCz2B-19">
          <mxGeometry relative="1" as="geometry" />
        </mxCell>
        <mxCell id="L7Zl3QWs8CthCIQaCz2B-22" value="Read-only Word Cesor" style="shape=parallelogram;perimeter=parallelogramPerimeter;whiteSpace=wrap;html=1;fixedSize=1;" vertex="1" parent="1">
          <mxGeometry x="-20" y="240" width="160" height="40" as="geometry" />
        </mxCell>
        <mxCell id="L7Zl3QWs8CthCIQaCz2B-24" value="MS CHAT PODS" style="rounded=0;whiteSpace=wrap;html=1;" vertex="1" parent="1">
          <mxGeometry x="630" y="540" width="120" height="60" as="geometry" />
        </mxCell>
        <mxCell id="L7Zl3QWs8CthCIQaCz2B-26" style="edgeStyle=orthogonalEdgeStyle;rounded=0;orthogonalLoop=1;jettySize=auto;html=1;exitX=1;exitY=0.5;exitDx=0;exitDy=0;entryX=0;entryY=0.5;entryDx=0;entryDy=0;" edge="1" parent="1" source="L7Zl3QWs8CthCIQaCz2B-25" target="L7Zl3QWs8CthCIQaCz2B-24">
          <mxGeometry relative="1" as="geometry" />
        </mxCell>
        <mxCell id="L7Zl3QWs8CthCIQaCz2B-25" value="Gateway" style="rounded=0;whiteSpace=wrap;html=1;" vertex="1" parent="1">
          <mxGeometry x="440" y="540" width="120" height="60" as="geometry" />
        </mxCell>
      </root>
    </mxGraphModel>
  </diagram>
  <diagram id="nFkS9BRE9M-niLFiysaL" name="Chat Authentication ">
    <mxGraphModel dx="778" dy="413" grid="0" gridSize="10" guides="1" tooltips="1" connect="1" arrows="1" fold="1" page="1" pageScale="1" pageWidth="1100" pageHeight="850" math="0" shadow="0">
      <root>
        <mxCell id="0" />
        <mxCell id="1" parent="0" />
        <mxCell id="LHKKHan5Uk_gRV6371GA-4" value="" style="group" vertex="1" connectable="0" parent="1">
          <mxGeometry x="40" y="40" width="996" height="665" as="geometry" />
        </mxCell>
        <mxCell id="PBRD8OXH9wPvSlpVfhk5-1" value="padiumkm.id" style="swimlane;whiteSpace=wrap;html=1;fillColor=#dae8fc;strokeColor=#6c8ebf;swimlaneLine=0;opacity=50;" parent="LHKKHan5Uk_gRV6371GA-4" vertex="1">
          <mxGeometry x="191.5791710945802" width="476.30180658873536" height="386.1290322580645" as="geometry" />
        </mxCell>
        <mxCell id="PBRD8OXH9wPvSlpVfhk5-13" style="edgeStyle=orthogonalEdgeStyle;rounded=0;orthogonalLoop=1;jettySize=auto;html=1;entryX=0.5;entryY=0;entryDx=0;entryDy=0;endArrow=none;endFill=0;dashed=1;" parent="PBRD8OXH9wPvSlpVfhk5-1" source="PBRD8OXH9wPvSlpVfhk5-8" target="PBRD8OXH9wPvSlpVfhk5-12" edge="1">
          <mxGeometry relative="1" as="geometry" />
        </mxCell>
        <mxCell id="PBRD8OXH9wPvSlpVfhk5-8" value="&lt;div&gt;Login Page&lt;br&gt;&lt;/div&gt;" style="fontStyle=1;whiteSpace=wrap;html=1;fillColor=#eeeeee;strokeColor=#36393d;" parent="PBRD8OXH9wPvSlpVfhk5-1" vertex="1">
          <mxGeometry x="55.039319872476085" y="106.18548387096773" width="148.182784272051" height="32.177419354838705" as="geometry" />
        </mxCell>
        <mxCell id="PBRD8OXH9wPvSlpVfhk5-16" style="edgeStyle=orthogonalEdgeStyle;rounded=0;orthogonalLoop=1;jettySize=auto;html=1;entryX=0.5;entryY=0;entryDx=0;entryDy=0;endArrow=none;endFill=0;dashed=1;" parent="PBRD8OXH9wPvSlpVfhk5-1" source="PBRD8OXH9wPvSlpVfhk5-9" target="PBRD8OXH9wPvSlpVfhk5-15" edge="1">
          <mxGeometry relative="1" as="geometry" />
        </mxCell>
        <mxCell id="PBRD8OXH9wPvSlpVfhk5-9" value="&lt;div&gt;Chat app&lt;br&gt;&lt;/div&gt;" style="fontStyle=1;whiteSpace=wrap;html=1;fillColor=#eeeeee;strokeColor=#36393d;" parent="PBRD8OXH9wPvSlpVfhk5-1" vertex="1">
          <mxGeometry x="287.8979808714134" y="106.18548387096773" width="148.182784272051" height="32.177419354838705" as="geometry" />
        </mxCell>
        <mxCell id="PBRD8OXH9wPvSlpVfhk5-22" style="edgeStyle=orthogonalEdgeStyle;rounded=0;orthogonalLoop=1;jettySize=auto;html=1;endArrow=none;endFill=0;dashed=1;" parent="PBRD8OXH9wPvSlpVfhk5-1" source="PBRD8OXH9wPvSlpVfhk5-12" edge="1">
          <mxGeometry relative="1" as="geometry">
            <mxPoint x="129.13071200850158" y="246.69354838709677" as="targetPoint" />
          </mxGeometry>
        </mxCell>
        <mxCell id="PBRD8OXH9wPvSlpVfhk5-12" value="" style="rounded=0;whiteSpace=wrap;html=1;" parent="PBRD8OXH9wPvSlpVfhk5-1" vertex="1">
          <mxGeometry x="120.66312433581295" y="171.61290322580643" width="16.935175345377257" height="64.35483870967741" as="geometry" />
        </mxCell>
        <mxCell id="PBRD8OXH9wPvSlpVfhk5-32" style="edgeStyle=orthogonalEdgeStyle;rounded=0;orthogonalLoop=1;jettySize=auto;html=1;entryX=0.5;entryY=0;entryDx=0;entryDy=0;endArrow=none;endFill=0;dashed=1;" parent="PBRD8OXH9wPvSlpVfhk5-1" source="PBRD8OXH9wPvSlpVfhk5-15" target="PBRD8OXH9wPvSlpVfhk5-31" edge="1">
          <mxGeometry relative="1" as="geometry" />
        </mxCell>
        <mxCell id="PBRD8OXH9wPvSlpVfhk5-15" value="" style="rounded=0;whiteSpace=wrap;html=1;" parent="PBRD8OXH9wPvSlpVfhk5-1" vertex="1">
          <mxGeometry x="353.52178533475023" y="187.7016129032258" width="16.935175345377257" height="64.35483870967741" as="geometry" />
        </mxCell>
        <mxCell id="PBRD8OXH9wPvSlpVfhk5-14" value="[Login Valid] &lt;span lang=&quot;en&quot; class=&quot;HwtZe&quot;&gt;&lt;span class=&quot;jCAhz JxVs2d&quot;&gt;&lt;span class=&quot;ryNqvb&quot;&gt;receive&lt;/span&gt;&lt;/span&gt;&lt;/span&gt;&lt;span class=&quot;ZSCsVd&quot;&gt; JWT&lt;br&gt;&lt;/span&gt;" style="html=1;verticalAlign=bottom;labelBackgroundColor=none;endArrow=open;endFill=0;rounded=0;exitX=1;exitY=0.5;exitDx=0;exitDy=0;edgeStyle=orthogonalEdgeStyle;entryX=0;entryY=0.25;entryDx=0;entryDy=0;" parent="PBRD8OXH9wPvSlpVfhk5-1" source="PBRD8OXH9wPvSlpVfhk5-12" target="PBRD8OXH9wPvSlpVfhk5-15" edge="1">
          <mxGeometry width="160" relative="1" as="geometry">
            <mxPoint x="228.62486716259298" y="212.37096774193546" as="sourcePoint" />
            <mxPoint x="339.7619553666312" y="202.71774193548387" as="targetPoint" />
          </mxGeometry>
        </mxCell>
        <mxCell id="PBRD8OXH9wPvSlpVfhk5-21" value="" style="rounded=0;whiteSpace=wrap;html=1;" parent="PBRD8OXH9wPvSlpVfhk5-1" vertex="1">
          <mxGeometry x="120.66312433581295" y="252.0564516129032" width="16.935175345377257" height="64.35483870967741" as="geometry" />
        </mxCell>
        <mxCell id="PBRD8OXH9wPvSlpVfhk5-24" value="[Login Invalid]&lt;span class=&quot;ZSCsVd&quot;&gt;&lt;br&gt;&lt;/span&gt;" style="html=1;verticalAlign=bottom;labelBackgroundColor=none;endArrow=open;endFill=0;rounded=0;exitX=1;exitY=0.75;exitDx=0;exitDy=0;edgeStyle=orthogonalEdgeStyle;entryX=1;entryY=0.25;entryDx=0;entryDy=0;strokeColor=#FF6666;" parent="PBRD8OXH9wPvSlpVfhk5-1" source="PBRD8OXH9wPvSlpVfhk5-12" target="PBRD8OXH9wPvSlpVfhk5-21" edge="1">
          <mxGeometry x="0.5472" y="-10" width="160" relative="1" as="geometry">
            <mxPoint x="148.182784272051" y="268.14516129032256" as="sourcePoint" />
            <mxPoint x="364.106269925611" y="268.14516129032256" as="targetPoint" />
            <Array as="points">
              <mxPoint x="254.02763018065886" y="219.8790322580645" />
              <mxPoint x="254.02763018065886" y="268.14516129032256" />
            </Array>
            <mxPoint as="offset" />
          </mxGeometry>
        </mxCell>
        <mxCell id="LHKKHan5Uk_gRV6371GA-6" style="edgeStyle=orthogonalEdgeStyle;rounded=0;orthogonalLoop=1;jettySize=auto;html=1;endArrow=none;endFill=0;dashed=1;" edge="1" parent="PBRD8OXH9wPvSlpVfhk5-1" source="PBRD8OXH9wPvSlpVfhk5-31" target="LHKKHan5Uk_gRV6371GA-5">
          <mxGeometry relative="1" as="geometry" />
        </mxCell>
        <mxCell id="LHKKHan5Uk_gRV6371GA-7" style="edgeStyle=orthogonalEdgeStyle;rounded=0;orthogonalLoop=1;jettySize=auto;html=1;exitX=1;exitY=0.75;exitDx=0;exitDy=0;entryX=1;entryY=0.5;entryDx=0;entryDy=0;dashed=1;fillColor=#cdeb8b;strokeColor=#00FF00;" edge="1" parent="PBRD8OXH9wPvSlpVfhk5-1" source="PBRD8OXH9wPvSlpVfhk5-31" target="LHKKHan5Uk_gRV6371GA-5">
          <mxGeometry relative="1" as="geometry" />
        </mxCell>
        <mxCell id="LHKKHan5Uk_gRV6371GA-8" value="signInWithCustomToken()" style="edgeLabel;html=1;align=center;verticalAlign=middle;resizable=0;points=[];" vertex="1" connectable="0" parent="LHKKHan5Uk_gRV6371GA-7">
          <mxGeometry x="-0.1284" y="1" relative="1" as="geometry">
            <mxPoint x="73" y="14" as="offset" />
          </mxGeometry>
        </mxCell>
        <mxCell id="PBRD8OXH9wPvSlpVfhk5-31" value="" style="rounded=0;whiteSpace=wrap;html=1;" parent="PBRD8OXH9wPvSlpVfhk5-1" vertex="1">
          <mxGeometry x="353.52178533475023" y="276.47258064516126" width="16.935175345377257" height="42.90322580645161" as="geometry" />
        </mxCell>
        <mxCell id="PBRD8OXH9wPvSlpVfhk5-46" value="2" style="ellipse;whiteSpace=wrap;html=1;aspect=fixed;fontStyle=1;fontSize=10;" parent="PBRD8OXH9wPvSlpVfhk5-1" vertex="1">
          <mxGeometry x="157.7088204038257" y="171.61290322580643" width="19.052072263549412" height="19.052072263549412" as="geometry" />
        </mxCell>
        <mxCell id="PBRD8OXH9wPvSlpVfhk5-48" value="3" style="ellipse;whiteSpace=wrap;html=1;aspect=fixed;fontStyle=1;fontSize=10;" parent="PBRD8OXH9wPvSlpVfhk5-1" vertex="1">
          <mxGeometry x="422.3209351753453" y="203.79032258064515" width="19.052072263549412" height="19.052072263549412" as="geometry" />
        </mxCell>
        <mxCell id="LHKKHan5Uk_gRV6371GA-2" value="5" style="ellipse;whiteSpace=wrap;html=1;aspect=fixed;fontStyle=1;fontSize=10;" vertex="1" parent="PBRD8OXH9wPvSlpVfhk5-1">
          <mxGeometry x="400.4174707757704" y="316.408064516129" width="19.052072263549412" height="19.052072263549412" as="geometry" />
        </mxCell>
        <mxCell id="LHKKHan5Uk_gRV6371GA-5" value="" style="rounded=0;whiteSpace=wrap;html=1;" vertex="1" parent="PBRD8OXH9wPvSlpVfhk5-1">
          <mxGeometry x="353.52" y="341" width="16.94" height="37" as="geometry" />
        </mxCell>
        <mxCell id="PBRD8OXH9wPvSlpVfhk5-2" value="ms-core-chat" style="swimlane;whiteSpace=wrap;html=1;fillColor=#dae8fc;strokeColor=#6c8ebf;startSize=23;swimlaneLine=0;opacity=50;" parent="LHKKHan5Uk_gRV6371GA-4" vertex="1">
          <mxGeometry x="699.6344314558979" width="296.365568544102" height="386.1290322580645" as="geometry" />
        </mxCell>
        <mxCell id="PBRD8OXH9wPvSlpVfhk5-30" style="edgeStyle=orthogonalEdgeStyle;rounded=0;orthogonalLoop=1;jettySize=auto;html=1;entryX=0.5;entryY=0;entryDx=0;entryDy=0;endArrow=none;endFill=0;dashed=1;" parent="PBRD8OXH9wPvSlpVfhk5-2" source="PBRD8OXH9wPvSlpVfhk5-25" target="PBRD8OXH9wPvSlpVfhk5-28" edge="1">
          <mxGeometry relative="1" as="geometry" />
        </mxCell>
        <mxCell id="PBRD8OXH9wPvSlpVfhk5-25" value="&lt;div&gt;Custom Token&lt;br&gt;&lt;/div&gt;" style="fontStyle=1;whiteSpace=wrap;html=1;fillColor=#eeeeee;strokeColor=#36393d;" parent="PBRD8OXH9wPvSlpVfhk5-2" vertex="1">
          <mxGeometry x="74.0913921360255" y="106.18548387096773" width="148.182784272051" height="32.177419354838705" as="geometry" />
        </mxCell>
        <mxCell id="OCKBPIjVlYdrEl-R3gCF-8" style="edgeStyle=orthogonalEdgeStyle;rounded=0;orthogonalLoop=1;jettySize=auto;html=1;exitX=1;exitY=0.5;exitDx=0;exitDy=0;entryX=0.5;entryY=0;entryDx=0;entryDy=0;fontSize=12;startSize=8;endSize=8;endArrow=none;endFill=0;dashed=1;strokeColor=#00FF00;" parent="PBRD8OXH9wPvSlpVfhk5-2" source="PBRD8OXH9wPvSlpVfhk5-28" target="OCKBPIjVlYdrEl-R3gCF-6" edge="1">
          <mxGeometry relative="1" as="geometry" />
        </mxCell>
        <mxCell id="PBRD8OXH9wPvSlpVfhk5-28" value="" style="rounded=0;whiteSpace=wrap;html=1;" parent="PBRD8OXH9wPvSlpVfhk5-2" vertex="1">
          <mxGeometry x="139.71519659936237" y="187.7016129032258" width="16.935175345377257" height="64.35483870967741" as="geometry" />
        </mxCell>
        <mxCell id="OCKBPIjVlYdrEl-R3gCF-6" value="4" style="ellipse;whiteSpace=wrap;html=1;aspect=fixed;fontStyle=1;fontSize=10;" parent="PBRD8OXH9wPvSlpVfhk5-2" vertex="1">
          <mxGeometry x="222.2757279489904" y="276.47258064516126" width="19.052072263549412" height="19.052072263549412" as="geometry" />
        </mxCell>
        <mxCell id="PBRD8OXH9wPvSlpVfhk5-5" style="edgeStyle=orthogonalEdgeStyle;rounded=0;orthogonalLoop=1;jettySize=auto;html=1;entryX=0.5;entryY=0;entryDx=0;entryDy=0;dashed=1;" parent="LHKKHan5Uk_gRV6371GA-4" source="PBRD8OXH9wPvSlpVfhk5-3" target="PBRD8OXH9wPvSlpVfhk5-4" edge="1">
          <mxGeometry relative="1" as="geometry" />
        </mxCell>
        <mxCell id="PBRD8OXH9wPvSlpVfhk5-3" value="Client" style="rounded=0;whiteSpace=wrap;html=1;fillColor=#d0cee2;strokeColor=#56517e;" parent="LHKKHan5Uk_gRV6371GA-4" vertex="1">
          <mxGeometry width="127.01381509032943" height="54.7016129032258" as="geometry" />
        </mxCell>
        <mxCell id="PBRD8OXH9wPvSlpVfhk5-18" style="edgeStyle=orthogonalEdgeStyle;rounded=0;orthogonalLoop=1;jettySize=auto;html=1;entryX=0.5;entryY=0;entryDx=0;entryDy=0;endArrow=none;endFill=0;dashed=1;" parent="LHKKHan5Uk_gRV6371GA-4" source="PBRD8OXH9wPvSlpVfhk5-4" target="PBRD8OXH9wPvSlpVfhk5-17" edge="1">
          <mxGeometry relative="1" as="geometry" />
        </mxCell>
        <mxCell id="PBRD8OXH9wPvSlpVfhk5-4" value="" style="rounded=0;whiteSpace=wrap;html=1;" parent="LHKKHan5Uk_gRV6371GA-4" vertex="1">
          <mxGeometry x="55.039319872476085" y="115.83870967741935" width="16.935175345377257" height="27.887096774193548" as="geometry" />
        </mxCell>
        <mxCell id="PBRD8OXH9wPvSlpVfhk5-11" value="Auth with credential" style="html=1;verticalAlign=bottom;labelBackgroundColor=none;endArrow=open;endFill=0;rounded=0;entryX=0;entryY=0.5;entryDx=0;entryDy=0;exitX=1;exitY=0.25;exitDx=0;exitDy=0;" parent="LHKKHan5Uk_gRV6371GA-4" source="PBRD8OXH9wPvSlpVfhk5-4" target="PBRD8OXH9wPvSlpVfhk5-8" edge="1">
          <mxGeometry width="160" relative="1" as="geometry">
            <mxPoint x="317.53453772582355" y="161.95967741935482" as="sourcePoint" />
            <mxPoint x="486.8862911795961" y="161.95967741935482" as="targetPoint" />
          </mxGeometry>
        </mxCell>
        <mxCell id="PBRD8OXH9wPvSlpVfhk5-17" value="" style="rounded=0;whiteSpace=wrap;html=1;" parent="LHKKHan5Uk_gRV6371GA-4" vertex="1">
          <mxGeometry x="55.039319872476085" y="160.88709677419354" width="16.935175345377257" height="85.80645161290322" as="geometry" />
        </mxCell>
        <mxCell id="PBRD8OXH9wPvSlpVfhk5-20" value="Save JWT in cookies.access_token" style="html=1;verticalAlign=bottom;labelBackgroundColor=none;endArrow=open;endFill=0;rounded=0;dashed=1;exitX=0;exitY=0.5;exitDx=0;exitDy=0;" parent="LHKKHan5Uk_gRV6371GA-4" source="PBRD8OXH9wPvSlpVfhk5-12" target="PBRD8OXH9wPvSlpVfhk5-17" edge="1">
          <mxGeometry width="160" relative="1" as="geometry">
            <mxPoint x="149.24123273113707" y="193.06451612903226" as="sourcePoint" />
            <mxPoint x="128.0722635494155" y="257.41935483870964" as="targetPoint" />
          </mxGeometry>
        </mxCell>
        <mxCell id="PBRD8OXH9wPvSlpVfhk5-29" value="Check Padi user by JWT" style="html=1;verticalAlign=bottom;labelBackgroundColor=none;endArrow=open;endFill=0;rounded=0;exitX=1;exitY=0.75;exitDx=0;exitDy=0;edgeStyle=orthogonalEdgeStyle;entryX=0;entryY=0.75;entryDx=0;entryDy=0;" parent="LHKKHan5Uk_gRV6371GA-4" source="PBRD8OXH9wPvSlpVfhk5-15" target="PBRD8OXH9wPvSlpVfhk5-28" edge="1">
          <mxGeometry width="160" relative="1" as="geometry">
            <mxPoint x="640.3613177470775" y="300.3225806451613" as="sourcePoint" />
            <mxPoint x="856.2848034006375" y="300.3225806451613" as="targetPoint" />
          </mxGeometry>
        </mxCell>
        <mxCell id="PBRD8OXH9wPvSlpVfhk5-34" value="[JWT Valid] receive Custom Token" style="html=1;verticalAlign=bottom;labelBackgroundColor=none;endArrow=open;endFill=0;rounded=0;exitX=0;exitY=0.5;exitDx=0;exitDy=0;entryX=1;entryY=0.25;entryDx=0;entryDy=0;dashed=1;strokeColor=#00FF00;" parent="LHKKHan5Uk_gRV6371GA-4" source="OCKBPIjVlYdrEl-R3gCF-6" target="PBRD8OXH9wPvSlpVfhk5-31" edge="1">
          <mxGeometry x="0.2062" width="160" relative="1" as="geometry">
            <mxPoint x="592.731137088204" y="375.4032258064516" as="sourcePoint" />
            <mxPoint x="870.0446333687565" y="375.4032258064516" as="targetPoint" />
            <mxPoint as="offset" />
          </mxGeometry>
        </mxCell>
        <mxCell id="PBRD8OXH9wPvSlpVfhk5-35" value="Run-time auth" style="swimlane;whiteSpace=wrap;html=1;fillColor=#e1d5e7;strokeColor=#9673a6;startSize=23;swimlaneLine=0;opacity=50;" parent="LHKKHan5Uk_gRV6371GA-4" vertex="1">
          <mxGeometry x="191.5791710945802" y="412.94354838709677" width="804.4208289054197" height="252.0564516129032" as="geometry" />
        </mxCell>
        <mxCell id="PBRD8OXH9wPvSlpVfhk5-38" value="" style="rounded=0;whiteSpace=wrap;html=1;" parent="PBRD8OXH9wPvSlpVfhk5-35" vertex="1">
          <mxGeometry x="84.14665249734324" y="140.50806451612902" width="16.935175345377257" height="64.35483870967741" as="geometry" />
        </mxCell>
        <mxCell id="PBRD8OXH9wPvSlpVfhk5-39" value="&lt;div&gt;Listen auth&lt;/div&gt;&lt;div&gt;state&lt;/div&gt;" style="rhombus;whiteSpace=wrap;html=1;movable=1;resizable=1;rotatable=1;deletable=1;editable=1;locked=0;connectable=1;fillColor=#dae8fc;strokeColor=#6c8ebf;" parent="PBRD8OXH9wPvSlpVfhk5-35" vertex="1">
          <mxGeometry x="222.2741764080765" y="124.95564516129032" width="104.78639744952177" height="95.45967741935483" as="geometry" />
        </mxCell>
        <mxCell id="OCKBPIjVlYdrEl-R3gCF-5" value="Authenticated" style="html=1;verticalAlign=bottom;labelBackgroundColor=none;endArrow=open;endFill=0;rounded=0;exitX=0;exitY=0.5;exitDx=0;exitDy=0;edgeStyle=orthogonalEdgeStyle;entryX=1;entryY=0.5;entryDx=0;entryDy=0;strokeColor=#00FF00;" parent="PBRD8OXH9wPvSlpVfhk5-35" source="PBRD8OXH9wPvSlpVfhk5-39" target="PBRD8OXH9wPvSlpVfhk5-38" edge="1">
          <mxGeometry width="160" relative="1" as="geometry">
            <mxPoint x="115.37088204038255" y="348.58870967741933" as="sourcePoint" />
            <mxPoint x="331.2943676939426" y="348.58870967741933" as="targetPoint" />
          </mxGeometry>
        </mxCell>
        <mxCell id="PBRD8OXH9wPvSlpVfhk5-37" value="&lt;div&gt;Chat app&lt;/div&gt;" style="fontStyle=1;whiteSpace=wrap;html=1;fillColor=#eeeeee;strokeColor=#36393d;" parent="PBRD8OXH9wPvSlpVfhk5-35" vertex="1">
          <mxGeometry x="18.522848034006376" y="58.99193548387096" width="148.182784272051" height="32.177419354838705" as="geometry" />
        </mxCell>
        <mxCell id="PBRD8OXH9wPvSlpVfhk5-36" style="edgeStyle=orthogonalEdgeStyle;rounded=0;orthogonalLoop=1;jettySize=auto;html=1;entryX=0.5;entryY=0;entryDx=0;entryDy=0;endArrow=none;endFill=0;dashed=1;" parent="PBRD8OXH9wPvSlpVfhk5-35" source="PBRD8OXH9wPvSlpVfhk5-37" target="PBRD8OXH9wPvSlpVfhk5-38" edge="1">
          <mxGeometry relative="1" as="geometry" />
        </mxCell>
        <mxCell id="PBRD8OXH9wPvSlpVfhk5-40" style="edgeStyle=orthogonalEdgeStyle;rounded=0;orthogonalLoop=1;jettySize=auto;html=1;entryX=1;entryY=0.25;entryDx=0;entryDy=0;strokeColor=#FF6666;exitX=1;exitY=0.5;exitDx=0;exitDy=0;" parent="LHKKHan5Uk_gRV6371GA-4" source="PBRD8OXH9wPvSlpVfhk5-39" target="PBRD8OXH9wPvSlpVfhk5-28" edge="1">
          <mxGeometry relative="1" as="geometry">
            <mxPoint x="994.9415515409138" y="300.3225806451613" as="targetPoint" />
            <Array as="points">
              <mxPoint x="963.1880977683314" y="585.6290322580645" />
              <mxPoint x="963.1880977683314" y="203.79032258064515" />
            </Array>
          </mxGeometry>
        </mxCell>
        <mxCell id="PBRD8OXH9wPvSlpVfhk5-41" value="Revalidate session" style="edgeLabel;html=1;align=center;verticalAlign=middle;resizable=0;points=[];" parent="PBRD8OXH9wPvSlpVfhk5-40" vertex="1" connectable="0">
          <mxGeometry x="0.1485" y="-2" relative="1" as="geometry">
            <mxPoint x="-54" y="72" as="offset" />
          </mxGeometry>
        </mxCell>
        <mxCell id="PBRD8OXH9wPvSlpVfhk5-45" value="1" style="ellipse;whiteSpace=wrap;html=1;aspect=fixed;fontStyle=1;fontSize=10;" parent="LHKKHan5Uk_gRV6371GA-4" vertex="1">
          <mxGeometry x="84.67587672688629" y="96.53225806451613" width="19.052072263549412" height="19.052072263549412" as="geometry" />
        </mxCell>
        <mxCell id="OCKBPIjVlYdrEl-R3gCF-2" value="[Session Valid] reload()" style="html=1;verticalAlign=bottom;labelBackgroundColor=none;endArrow=open;endFill=0;rounded=0;entryX=0.5;entryY=0;entryDx=0;entryDy=0;dashed=1;strokeColor=#00FF00;edgeStyle=orthogonalEdgeStyle;exitX=0;exitY=0.5;exitDx=0;exitDy=0;" parent="LHKKHan5Uk_gRV6371GA-4" source="LHKKHan5Uk_gRV6371GA-5" target="PBRD8OXH9wPvSlpVfhk5-39" edge="1">
          <mxGeometry x="0.5367" width="160" relative="1" as="geometry">
            <mxPoint x="543" y="291" as="sourcePoint" />
            <mxPoint x="539.8087141339" y="761.5322580645161" as="targetPoint" />
            <mxPoint as="offset" />
          </mxGeometry>
        </mxCell>
      </root>
    </mxGraphModel>
  </diagram>
  <diagram id="-C5E3v7ZI0PwVyFsUeE0" name="Class Diagram">
    <mxGraphModel dx="1450" dy="1007" grid="1" gridSize="10" guides="1" tooltips="1" connect="1" arrows="1" fold="1" page="0" pageScale="1" pageWidth="1100" pageHeight="850" math="0" shadow="0">
      <root>
        <mxCell id="0" />
        <mxCell id="1" parent="0" />
        <mxCell id="vmdRX78VgZsFkfGbcJ2b-1" value="room-users" style="swimlane;fontStyle=1;align=center;verticalAlign=top;childLayout=stackLayout;horizontal=1;startSize=26;horizontalStack=0;resizeParent=1;resizeParentMax=0;resizeLast=0;collapsible=1;marginBottom=0;whiteSpace=wrap;html=1;fillColor=#f5f5f5;fontColor=#333333;strokeColor=#666666;" parent="1" vertex="1">
          <mxGeometry x="-320" y="120" width="160" height="190" as="geometry" />
        </mxCell>
        <mxCell id="vmdRX78VgZsFkfGbcJ2b-2" value="+ &lt;span class=&quot;database-key&quot;&gt;userId&lt;/span&gt;: Array&amp;lt;string&amp;gt;" style="text;strokeColor=none;fillColor=none;align=left;verticalAlign=top;spacingLeft=4;spacingRight=4;overflow=hidden;rotatable=0;points=[[0,0.5],[1,0.5]];portConstraint=eastwest;whiteSpace=wrap;html=1;" parent="vmdRX78VgZsFkfGbcJ2b-1" vertex="1">
          <mxGeometry y="26" width="160" height="26" as="geometry" />
        </mxCell>
        <mxCell id="vmdRX78VgZsFkfGbcJ2b-5" value="+ &lt;span class=&quot;database-key&quot;&gt;lastMessage&lt;/span&gt;: string" style="text;strokeColor=none;fillColor=none;align=left;verticalAlign=top;spacingLeft=4;spacingRight=4;overflow=hidden;rotatable=0;points=[[0,0.5],[1,0.5]];portConstraint=eastwest;whiteSpace=wrap;html=1;" parent="vmdRX78VgZsFkfGbcJ2b-1" vertex="1">
          <mxGeometry y="52" width="160" height="26" as="geometry" />
        </mxCell>
        <mxCell id="vmdRX78VgZsFkfGbcJ2b-6" value="+ &lt;span class=&quot;database-key&quot;&gt;roomId&lt;/span&gt;: string" style="text;strokeColor=none;fillColor=none;align=left;verticalAlign=top;spacingLeft=4;spacingRight=4;overflow=hidden;rotatable=0;points=[[0,0.5],[1,0.5]];portConstraint=eastwest;whiteSpace=wrap;html=1;" parent="vmdRX78VgZsFkfGbcJ2b-1" vertex="1">
          <mxGeometry y="78" width="160" height="26" as="geometry" />
        </mxCell>
        <mxCell id="vmdRX78VgZsFkfGbcJ2b-7" value="+ &lt;span class=&quot;database-key&quot;&gt;createdAt&lt;/span&gt;: Timestamp" style="text;strokeColor=none;fillColor=none;align=left;verticalAlign=top;spacingLeft=4;spacingRight=4;overflow=hidden;rotatable=0;points=[[0,0.5],[1,0.5]];portConstraint=eastwest;whiteSpace=wrap;html=1;" parent="vmdRX78VgZsFkfGbcJ2b-1" vertex="1">
          <mxGeometry y="104" width="160" height="26" as="geometry" />
        </mxCell>
        <mxCell id="vmdRX78VgZsFkfGbcJ2b-8" value="+ &lt;span class=&quot;database-key&quot;&gt;updatedAt&lt;/span&gt;: Timestamp" style="text;strokeColor=none;fillColor=none;align=left;verticalAlign=top;spacingLeft=4;spacingRight=4;overflow=hidden;rotatable=0;points=[[0,0.5],[1,0.5]];portConstraint=eastwest;whiteSpace=wrap;html=1;" parent="vmdRX78VgZsFkfGbcJ2b-1" vertex="1">
          <mxGeometry y="130" width="160" height="26" as="geometry" />
        </mxCell>
        <mxCell id="vmdRX78VgZsFkfGbcJ2b-3" value="" style="line;strokeWidth=1;fillColor=none;align=left;verticalAlign=middle;spacingTop=-1;spacingLeft=3;spacingRight=3;rotatable=0;labelPosition=right;points=[];portConstraint=eastwest;strokeColor=inherit;" parent="vmdRX78VgZsFkfGbcJ2b-1" vertex="1">
          <mxGeometry y="156" width="160" height="8" as="geometry" />
        </mxCell>
        <mxCell id="vmdRX78VgZsFkfGbcJ2b-4" value="+ method(type): type" style="text;strokeColor=none;fillColor=none;align=left;verticalAlign=top;spacingLeft=4;spacingRight=4;overflow=hidden;rotatable=0;points=[[0,0.5],[1,0.5]];portConstraint=eastwest;whiteSpace=wrap;html=1;" parent="vmdRX78VgZsFkfGbcJ2b-1" vertex="1">
          <mxGeometry y="164" width="160" height="26" as="geometry" />
        </mxCell>
        <mxCell id="vmdRX78VgZsFkfGbcJ2b-9" value="room-conversation" style="swimlane;fontStyle=1;align=center;verticalAlign=top;childLayout=stackLayout;horizontal=1;startSize=26;horizontalStack=0;resizeParent=1;resizeParentMax=0;resizeLast=0;collapsible=1;marginBottom=0;whiteSpace=wrap;html=1;fillColor=#f5f5f5;fontColor=#333333;strokeColor=#666666;" parent="1" vertex="1">
          <mxGeometry x="-340" y="-152" width="180" height="112" as="geometry" />
        </mxCell>
        <mxCell id="vmdRX78VgZsFkfGbcJ2b-10" value="+ &lt;span class=&quot;database-key&quot;&gt;roomId&lt;/span&gt;: string" style="text;strokeColor=none;fillColor=none;align=left;verticalAlign=top;spacingLeft=4;spacingRight=4;overflow=hidden;rotatable=0;points=[[0,0.5],[1,0.5]];portConstraint=eastwest;whiteSpace=wrap;html=1;" parent="vmdRX78VgZsFkfGbcJ2b-9" vertex="1">
          <mxGeometry y="26" width="180" height="26" as="geometry" />
        </mxCell>
        <mxCell id="vmdRX78VgZsFkfGbcJ2b-11" value="+ &lt;span class=&quot;database-key&quot;&gt;message&lt;/span&gt;s: Array&amp;lt;message&amp;gt;" style="text;strokeColor=none;fillColor=none;align=left;verticalAlign=top;spacingLeft=4;spacingRight=4;overflow=hidden;rotatable=0;points=[[0,0.5],[1,0.5]];portConstraint=eastwest;whiteSpace=wrap;html=1;" parent="vmdRX78VgZsFkfGbcJ2b-9" vertex="1">
          <mxGeometry y="52" width="180" height="26" as="geometry" />
        </mxCell>
        <mxCell id="vmdRX78VgZsFkfGbcJ2b-15" value="" style="line;strokeWidth=1;fillColor=none;align=left;verticalAlign=middle;spacingTop=-1;spacingLeft=3;spacingRight=3;rotatable=0;labelPosition=right;points=[];portConstraint=eastwest;strokeColor=inherit;" parent="vmdRX78VgZsFkfGbcJ2b-9" vertex="1">
          <mxGeometry y="78" width="180" height="8" as="geometry" />
        </mxCell>
        <mxCell id="vmdRX78VgZsFkfGbcJ2b-16" value="+ method(type): type" style="text;strokeColor=none;fillColor=none;align=left;verticalAlign=top;spacingLeft=4;spacingRight=4;overflow=hidden;rotatable=0;points=[[0,0.5],[1,0.5]];portConstraint=eastwest;whiteSpace=wrap;html=1;" parent="vmdRX78VgZsFkfGbcJ2b-9" vertex="1">
          <mxGeometry y="86" width="180" height="26" as="geometry" />
        </mxCell>
        <mxCell id="vmdRX78VgZsFkfGbcJ2b-17" value="message" style="swimlane;fontStyle=1;align=center;verticalAlign=top;childLayout=stackLayout;horizontal=1;startSize=26;horizontalStack=0;resizeParent=1;resizeParentMax=0;resizeLast=0;collapsible=1;marginBottom=0;whiteSpace=wrap;html=1;fillColor=#f5f5f5;fontColor=#333333;strokeColor=#666666;" parent="1" vertex="1">
          <mxGeometry x="-120" y="-40" width="160" height="346" as="geometry" />
        </mxCell>
        <mxCell id="vmdRX78VgZsFkfGbcJ2b-18" value="+ &lt;span class=&quot;database-key&quot;&gt;roomId&lt;/span&gt;: string" style="text;strokeColor=none;fillColor=none;align=left;verticalAlign=top;spacingLeft=4;spacingRight=4;overflow=hidden;rotatable=0;points=[[0,0.5],[1,0.5]];portConstraint=eastwest;whiteSpace=wrap;html=1;" parent="vmdRX78VgZsFkfGbcJ2b-17" vertex="1">
          <mxGeometry y="26" width="160" height="26" as="geometry" />
        </mxCell>
        <mxCell id="vmdRX78VgZsFkfGbcJ2b-19" value="+ &lt;span class=&quot;database-key&quot;&gt;userId&lt;/span&gt;: string" style="text;strokeColor=none;fillColor=none;align=left;verticalAlign=top;spacingLeft=4;spacingRight=4;overflow=hidden;rotatable=0;points=[[0,0.5],[1,0.5]];portConstraint=eastwest;whiteSpace=wrap;html=1;" parent="vmdRX78VgZsFkfGbcJ2b-17" vertex="1">
          <mxGeometry y="52" width="160" height="26" as="geometry" />
        </mxCell>
        <mxCell id="RH1NR3xfAnYbMVnJ7T3J-1" value="+ &lt;span class=&quot;database-key&quot;&gt;timestamp&lt;/span&gt;: &lt;span class=&quot;database-key&quot;&gt;Timestamp&lt;/span&gt;" style="text;strokeColor=none;fillColor=none;align=left;verticalAlign=top;spacingLeft=4;spacingRight=4;overflow=hidden;rotatable=0;points=[[0,0.5],[1,0.5]];portConstraint=eastwest;whiteSpace=wrap;html=1;" vertex="1" parent="vmdRX78VgZsFkfGbcJ2b-17">
          <mxGeometry y="78" width="160" height="26" as="geometry" />
        </mxCell>
        <mxCell id="RH1NR3xfAnYbMVnJ7T3J-2" value="+ &lt;span class=&quot;database-key&quot;&gt;read&lt;/span&gt;: boolean" style="text;strokeColor=none;fillColor=none;align=left;verticalAlign=top;spacingLeft=4;spacingRight=4;overflow=hidden;rotatable=0;points=[[0,0.5],[1,0.5]];portConstraint=eastwest;whiteSpace=wrap;html=1;" vertex="1" parent="vmdRX78VgZsFkfGbcJ2b-17">
          <mxGeometry y="104" width="160" height="26" as="geometry" />
        </mxCell>
        <mxCell id="RH1NR3xfAnYbMVnJ7T3J-3" value="+ &lt;span class=&quot;database-key&quot;&gt;message&lt;/span&gt;: string" style="text;strokeColor=none;fillColor=none;align=left;verticalAlign=top;spacingLeft=4;spacingRight=4;overflow=hidden;rotatable=0;points=[[0,0.5],[1,0.5]];portConstraint=eastwest;whiteSpace=wrap;html=1;" vertex="1" parent="vmdRX78VgZsFkfGbcJ2b-17">
          <mxGeometry y="130" width="160" height="26" as="geometry" />
        </mxCell>
        <mxCell id="RH1NR3xfAnYbMVnJ7T3J-9" value="+ &lt;span class=&quot;database-key&quot;&gt;type&lt;/span&gt;: &lt;span class=&quot;database-key&quot;&gt;MessageType&lt;/span&gt;" style="text;strokeColor=none;fillColor=none;align=left;verticalAlign=top;spacingLeft=4;spacingRight=4;overflow=hidden;rotatable=0;points=[[0,0.5],[1,0.5]];portConstraint=eastwest;whiteSpace=wrap;html=1;" vertex="1" parent="vmdRX78VgZsFkfGbcJ2b-17">
          <mxGeometry y="156" width="160" height="26" as="geometry" />
        </mxCell>
        <mxCell id="RH1NR3xfAnYbMVnJ7T3J-4" value="+ &lt;span class=&quot;database-key&quot;&gt;products&lt;/span&gt;: Array&amp;lt;string&amp;gt;" style="text;strokeColor=none;fillColor=none;align=left;verticalAlign=top;spacingLeft=4;spacingRight=4;overflow=hidden;rotatable=0;points=[[0,0.5],[1,0.5]];portConstraint=eastwest;whiteSpace=wrap;html=1;" vertex="1" parent="vmdRX78VgZsFkfGbcJ2b-17">
          <mxGeometry y="182" width="160" height="26" as="geometry" />
        </mxCell>
        <mxCell id="RH1NR3xfAnYbMVnJ7T3J-5" value="+ &lt;span class=&quot;database-key&quot;&gt;location&lt;/span&gt;: Location | null" style="text;strokeColor=none;fillColor=none;align=left;verticalAlign=top;spacingLeft=4;spacingRight=4;overflow=hidden;rotatable=0;points=[[0,0.5],[1,0.5]];portConstraint=eastwest;whiteSpace=wrap;html=1;" vertex="1" parent="vmdRX78VgZsFkfGbcJ2b-17">
          <mxGeometry y="208" width="160" height="26" as="geometry" />
        </mxCell>
        <mxCell id="RH1NR3xfAnYbMVnJ7T3J-7" value="+ &lt;span class=&quot;database-key&quot;&gt;document&lt;/span&gt;: string | null" style="text;strokeColor=none;fillColor=none;align=left;verticalAlign=top;spacingLeft=4;spacingRight=4;overflow=hidden;rotatable=0;points=[[0,0.5],[1,0.5]];portConstraint=eastwest;whiteSpace=wrap;html=1;" vertex="1" parent="vmdRX78VgZsFkfGbcJ2b-17">
          <mxGeometry y="234" width="160" height="26" as="geometry" />
        </mxCell>
        <mxCell id="RH1NR3xfAnYbMVnJ7T3J-8" value="+ image: string | null" style="text;strokeColor=none;fillColor=none;align=left;verticalAlign=top;spacingLeft=4;spacingRight=4;overflow=hidden;rotatable=0;points=[[0,0.5],[1,0.5]];portConstraint=eastwest;whiteSpace=wrap;html=1;" vertex="1" parent="vmdRX78VgZsFkfGbcJ2b-17">
          <mxGeometry y="260" width="160" height="26" as="geometry" />
        </mxCell>
        <mxCell id="RH1NR3xfAnYbMVnJ7T3J-6" value="+ &lt;span class=&quot;database-key&quot;&gt;isBlocked&lt;/span&gt;: boolean" style="text;strokeColor=none;fillColor=none;align=left;verticalAlign=top;spacingLeft=4;spacingRight=4;overflow=hidden;rotatable=0;points=[[0,0.5],[1,0.5]];portConstraint=eastwest;whiteSpace=wrap;html=1;" vertex="1" parent="vmdRX78VgZsFkfGbcJ2b-17">
          <mxGeometry y="286" width="160" height="26" as="geometry" />
        </mxCell>
        <mxCell id="vmdRX78VgZsFkfGbcJ2b-20" value="" style="line;strokeWidth=1;fillColor=none;align=left;verticalAlign=middle;spacingTop=-1;spacingLeft=3;spacingRight=3;rotatable=0;labelPosition=right;points=[];portConstraint=eastwest;strokeColor=inherit;" parent="vmdRX78VgZsFkfGbcJ2b-17" vertex="1">
          <mxGeometry y="312" width="160" height="8" as="geometry" />
        </mxCell>
        <mxCell id="vmdRX78VgZsFkfGbcJ2b-21" value="+ method(type): type" style="text;strokeColor=none;fillColor=none;align=left;verticalAlign=top;spacingLeft=4;spacingRight=4;overflow=hidden;rotatable=0;points=[[0,0.5],[1,0.5]];portConstraint=eastwest;whiteSpace=wrap;html=1;" parent="vmdRX78VgZsFkfGbcJ2b-17" vertex="1">
          <mxGeometry y="320" width="160" height="26" as="geometry" />
        </mxCell>
        <mxCell id="vmdRX78VgZsFkfGbcJ2b-22" value="1" style="endArrow=classicThin;html=1;endSize=12;startArrow=diamondThin;startSize=14;startFill=0;edgeStyle=orthogonalEdgeStyle;align=left;verticalAlign=bottom;rounded=0;exitX=1;exitY=0.5;exitDx=0;exitDy=0;entryX=0.5;entryY=0;entryDx=0;entryDy=0;endFill=0;" parent="1" source="vmdRX78VgZsFkfGbcJ2b-11" target="vmdRX78VgZsFkfGbcJ2b-17" edge="1">
          <mxGeometry x="-1" y="3" relative="1" as="geometry">
            <mxPoint x="-110" y="-90" as="sourcePoint" />
            <mxPoint x="50" y="-90" as="targetPoint" />
          </mxGeometry>
        </mxCell>
        <mxCell id="vmdRX78VgZsFkfGbcJ2b-23" value="subcollection" style="edgeLabel;html=1;align=center;verticalAlign=middle;resizable=0;points=[];" parent="vmdRX78VgZsFkfGbcJ2b-22" vertex="1" connectable="0">
          <mxGeometry x="-0.3615" relative="1" as="geometry">
            <mxPoint as="offset" />
          </mxGeometry>
        </mxCell>
        <mxCell id="RH1NR3xfAnYbMVnJ7T3J-10" value="&lt;div&gt;&amp;lt;&amp;lt;enumeration&amp;gt;&amp;gt;&lt;/div&gt;&lt;div&gt;&lt;span class=&quot;database-key&quot;&gt;MessageType&lt;/span&gt;&lt;/div&gt;" style="swimlane;fontStyle=1;align=center;verticalAlign=top;childLayout=stackLayout;horizontal=1;startSize=40;horizontalStack=0;resizeParent=1;resizeParentMax=0;resizeLast=0;collapsible=1;marginBottom=0;whiteSpace=wrap;html=1;" vertex="1" parent="1">
          <mxGeometry x="90" y="-10" width="160" height="170" as="geometry" />
        </mxCell>
        <mxCell id="RH1NR3xfAnYbMVnJ7T3J-11" value="text" style="text;strokeColor=none;fillColor=none;align=left;verticalAlign=top;spacingLeft=4;spacingRight=4;overflow=hidden;rotatable=0;points=[[0,0.5],[1,0.5]];portConstraint=eastwest;whiteSpace=wrap;html=1;" vertex="1" parent="RH1NR3xfAnYbMVnJ7T3J-10">
          <mxGeometry y="40" width="160" height="26" as="geometry" />
        </mxCell>
        <mxCell id="RH1NR3xfAnYbMVnJ7T3J-14" value="image" style="text;strokeColor=none;fillColor=none;align=left;verticalAlign=top;spacingLeft=4;spacingRight=4;overflow=hidden;rotatable=0;points=[[0,0.5],[1,0.5]];portConstraint=eastwest;whiteSpace=wrap;html=1;" vertex="1" parent="RH1NR3xfAnYbMVnJ7T3J-10">
          <mxGeometry y="66" width="160" height="26" as="geometry" />
        </mxCell>
        <mxCell id="RH1NR3xfAnYbMVnJ7T3J-15" value="product" style="text;strokeColor=none;fillColor=none;align=left;verticalAlign=top;spacingLeft=4;spacingRight=4;overflow=hidden;rotatable=0;points=[[0,0.5],[1,0.5]];portConstraint=eastwest;whiteSpace=wrap;html=1;" vertex="1" parent="RH1NR3xfAnYbMVnJ7T3J-10">
          <mxGeometry y="92" width="160" height="26" as="geometry" />
        </mxCell>
        <mxCell id="RH1NR3xfAnYbMVnJ7T3J-16" value="location" style="text;strokeColor=none;fillColor=none;align=left;verticalAlign=top;spacingLeft=4;spacingRight=4;overflow=hidden;rotatable=0;points=[[0,0.5],[1,0.5]];portConstraint=eastwest;whiteSpace=wrap;html=1;" vertex="1" parent="RH1NR3xfAnYbMVnJ7T3J-10">
          <mxGeometry y="118" width="160" height="26" as="geometry" />
        </mxCell>
        <mxCell id="RH1NR3xfAnYbMVnJ7T3J-17" value="document" style="text;strokeColor=none;fillColor=none;align=left;verticalAlign=top;spacingLeft=4;spacingRight=4;overflow=hidden;rotatable=0;points=[[0,0.5],[1,0.5]];portConstraint=eastwest;whiteSpace=wrap;html=1;" vertex="1" parent="RH1NR3xfAnYbMVnJ7T3J-10">
          <mxGeometry y="144" width="160" height="26" as="geometry" />
        </mxCell>
        <mxCell id="RH1NR3xfAnYbMVnJ7T3J-18" style="edgeStyle=orthogonalEdgeStyle;rounded=0;orthogonalLoop=1;jettySize=auto;html=1;fontSize=12;startSize=8;endSize=8;entryX=0.013;entryY=0.077;entryDx=0;entryDy=0;entryPerimeter=0;" edge="1" parent="1" source="RH1NR3xfAnYbMVnJ7T3J-4" target="RH1NR3xfAnYbMVnJ7T3J-11">
          <mxGeometry relative="1" as="geometry">
            <mxPoint x="60" y="230" as="targetPoint" />
          </mxGeometry>
        </mxCell>
        <mxCell id="RH1NR3xfAnYbMVnJ7T3J-19" value="&lt;div&gt;&amp;lt;&amp;lt;dataType&amp;gt;&amp;gt;&lt;/div&gt;&lt;div&gt;Location&lt;/div&gt;" style="swimlane;fontStyle=1;align=center;verticalAlign=top;childLayout=stackLayout;horizontal=1;startSize=40;horizontalStack=0;resizeParent=1;resizeParentMax=0;resizeLast=0;collapsible=1;marginBottom=0;whiteSpace=wrap;html=1;" vertex="1" parent="1">
          <mxGeometry x="90" y="186" width="160" height="120" as="geometry" />
        </mxCell>
        <mxCell id="RH1NR3xfAnYbMVnJ7T3J-20" value="- address: string" style="text;strokeColor=none;fillColor=none;align=left;verticalAlign=top;spacingLeft=4;spacingRight=4;overflow=hidden;rotatable=0;points=[[0,0.5],[1,0.5]];portConstraint=eastwest;whiteSpace=wrap;html=1;" vertex="1" parent="RH1NR3xfAnYbMVnJ7T3J-19">
          <mxGeometry y="40" width="160" height="26" as="geometry" />
        </mxCell>
        <mxCell id="RH1NR3xfAnYbMVnJ7T3J-21" value="- latitude: number" style="text;strokeColor=none;fillColor=none;align=left;verticalAlign=top;spacingLeft=4;spacingRight=4;overflow=hidden;rotatable=0;points=[[0,0.5],[1,0.5]];portConstraint=eastwest;whiteSpace=wrap;html=1;" vertex="1" parent="RH1NR3xfAnYbMVnJ7T3J-19">
          <mxGeometry y="66" width="160" height="26" as="geometry" />
        </mxCell>
        <mxCell id="RH1NR3xfAnYbMVnJ7T3J-22" value="- longitude: number" style="text;strokeColor=none;fillColor=none;align=left;verticalAlign=top;spacingLeft=4;spacingRight=4;overflow=hidden;rotatable=0;points=[[0,0.5],[1,0.5]];portConstraint=eastwest;whiteSpace=wrap;html=1;" vertex="1" parent="RH1NR3xfAnYbMVnJ7T3J-19">
          <mxGeometry y="92" width="160" height="28" as="geometry" />
        </mxCell>
        <mxCell id="RH1NR3xfAnYbMVnJ7T3J-25" style="edgeStyle=orthogonalEdgeStyle;rounded=0;orthogonalLoop=1;jettySize=auto;html=1;exitX=1;exitY=0.5;exitDx=0;exitDy=0;entryX=0;entryY=0.25;entryDx=0;entryDy=0;fontSize=12;startSize=8;endSize=8;" edge="1" parent="1" source="RH1NR3xfAnYbMVnJ7T3J-5" target="RH1NR3xfAnYbMVnJ7T3J-19">
          <mxGeometry relative="1" as="geometry" />
        </mxCell>
      </root>
    </mxGraphModel>
  </diagram>
</mxfile>
